<svg xmlns="http://www.w3.org/2000/svg" viewBox="0 0 64 64">
  <rect width="64" height="64" rx="14" fill="#0A1626"/>
  <g fill="#F6B40E">
    <rect x="30" y="4" width="4" height="9" rx="1.2"/>
    <rect x="30" y="4" width="4" height="9" rx="1.2" transform="rotate(45 32 32)"/>
    <rect x="30" y="4" width="4" height="9" rx="1.2" transform="rotate(90 32 32)"/>
    <rect x="30" y="4" width="4" height="9" rx="1.2" transform="rotate(135 32 32)"/>
    <rect x="30" y="4" width="4" height="9" rx="1.2" transform="rotate(180 32 32)"/>
    <rect x="30" y="4" width="4" height="9" rx="1.2" transform="rotate(225 32 32)"/>
    <rect x="30" y="4" width="4" height="9" rx="1.2" transform="rotate(270 32 32)"/>
    <rect x="30" y="4" width="4" height="9" rx="1.2" transform="rotate(315 32 32)"/>
    <circle cx="32" cy="32" r="15"/>
  </g>
  <path d="M32 24L39.6 29.5L36.7 38.5H27.3L24.4 29.5Z" fill="#0A1626"/>
  <rect x="14" y="56" width="36" height="3" rx="1.5" fill="#75AADB"/>
</svg>
